<svg width="34" height="35" viewBox="0 0 34 35" fill="none" xmlns="http://www.w3.org/2000/svg">
<path d="M33.955 17.6036C33.4155 20.2101 33.1008 22.7047 32.1679 25.1434C32.0443 25.4454 31.9094 25.7362 31.7633 26.0271C30.2797 29.3495 27.9868 32.1461 24.5924 33.5556C24.2777 33.7011 23.9517 33.8353 23.6258 33.9472C21.3329 34.7414 18.759 34.7526 16.4549 34.2939C16.084 34.2268 15.7018 34.1709 15.3309 34.1038C15.005 34.0478 14.679 33.9807 14.3531 33.9136C14.0271 33.8465 13.7012 33.7794 13.3752 33.7011C10.2618 33.1977 6.92364 32.4705 4.95669 29.797C4.69818 29.5285 4.43967 29.26 4.1924 28.9803C1.77587 26.8885 0.517025 23.98 0.101157 20.982C0.0561983 20.6464 0.0224793 20.3108 0 19.9752C0.247273 16.6863 0.561983 13.3639 1.58479 10.1198C1.74215 9.79543 1.91074 9.48221 2.09058 9.16899C2.45025 8.54254 2.84364 7.94965 3.28198 7.37914C3.51802 7.06592 3.77653 6.75269 4.04628 6.45066C6.50777 4.43708 9.11537 2.46825 12.004 1.31604C12.3861 1.19298 12.7907 1.09231 13.1841 1.00281C14.398 0.745523 15.6456 0.600098 16.9382 0.600098C18.2307 0.600098 19.4783 0.745523 20.6922 1.014C21.0969 1.10349 21.4902 1.20417 21.8836 1.32722C26.0198 2.16621 29.6615 4.44827 31.2912 8.36355C31.5048 8.69915 31.7071 9.03475 31.9094 9.38153C32.7636 10.9029 33.3818 12.5809 33.7302 14.3484C33.7977 14.7063 33.8539 15.0643 33.9101 15.4223C33.955 15.7802 33.9888 16.1494 34 16.5185C34 16.8765 33.9888 17.2457 33.955 17.6036Z" fill="#EBC633"/>
</svg>
